<mxfile host="app.diagrams.net" agent="Mozilla/5.0 (Windows NT 10.0; Win64; x64; rv:144.0) Gecko/20100101 Firefox/144.0" version="28.2.8">
  <diagram name="Page-1" id="RffvDeGVpNFIwnqqBonR">
    <mxGraphModel grid="1" page="1" gridSize="10" guides="1" tooltips="1" connect="1" arrows="1" fold="1" pageScale="1" pageWidth="850" pageHeight="1100" math="0" shadow="0">
      <root>
        <mxCell id="0" />
        <mxCell id="1" parent="0" />
        <mxCell id="14n-f7DVuK32noArM2Mq-1" value="1. Student Registration and Profile Management" style="ellipse;whiteSpace=wrap;html=1;aspect=fixed;" vertex="1" parent="1">
          <mxGeometry x="1203" y="130" width="145" height="145" as="geometry" />
        </mxCell>
        <mxCell id="14n-f7DVuK32noArM2Mq-2" value="2. User Authentication and Role Management" style="ellipse;whiteSpace=wrap;html=1;aspect=fixed;" vertex="1" parent="1">
          <mxGeometry x="1203" y="330" width="145" height="145" as="geometry" />
        </mxCell>
        <mxCell id="14n-f7DVuK32noArM2Mq-3" value="3. Fee and Financial Management" style="ellipse;whiteSpace=wrap;html=1;aspect=fixed;" vertex="1" parent="1">
          <mxGeometry x="1203" y="530" width="145" height="145" as="geometry" />
        </mxCell>
        <mxCell id="14n-f7DVuK32noArM2Mq-4" value="4. Admin Dashboard and Data Management" style="ellipse;whiteSpace=wrap;html=1;aspect=fixed;" vertex="1" parent="1">
          <mxGeometry x="1203" y="730" width="145" height="145" as="geometry" />
        </mxCell>
        <mxCell id="14n-f7DVuK32noArM2Mq-5" value="5. Notifications and Announcements" style="ellipse;whiteSpace=wrap;html=1;aspect=fixed;" vertex="1" parent="1">
          <mxGeometry x="1203" y="940" width="145" height="145" as="geometry" />
        </mxCell>
        <mxCell id="14n-f7DVuK32noArM2Mq-7" value="&lt;div&gt;Student&lt;/div&gt;" style="whiteSpace=wrap;html=1;aspect=fixed;" vertex="1" parent="1">
          <mxGeometry x="970" y="532.5" width="140" height="140" as="geometry" />
        </mxCell>
        <mxCell id="14n-f7DVuK32noArM2Mq-8" value="Administrator" style="whiteSpace=wrap;html=1;aspect=fixed;" vertex="1" parent="1">
          <mxGeometry x="1440" y="535" width="140" height="140" as="geometry" />
        </mxCell>
        <mxCell id="14n-f7DVuK32noArM2Mq-9" value="" style="endArrow=classic;html=1;rounded=0;exitX=0;exitY=0;exitDx=0;exitDy=0;entryX=1.011;entryY=0.136;entryDx=0;entryDy=0;entryPerimeter=0;" edge="1" parent="1" source="14n-f7DVuK32noArM2Mq-3" target="14n-f7DVuK32noArM2Mq-7">
          <mxGeometry width="50" height="50" relative="1" as="geometry">
            <mxPoint x="1083" y="306.5" as="sourcePoint" />
            <mxPoint x="770" y="672.5" as="targetPoint" />
          </mxGeometry>
        </mxCell>
        <mxCell id="14n-f7DVuK32noArM2Mq-10" value="" style="endArrow=classic;html=1;rounded=0;exitX=1;exitY=0.5;exitDx=0;exitDy=0;entryX=0;entryY=0.5;entryDx=0;entryDy=0;" edge="1" parent="1" source="14n-f7DVuK32noArM2Mq-7" target="14n-f7DVuK32noArM2Mq-3">
          <mxGeometry width="50" height="50" relative="1" as="geometry">
            <mxPoint x="890" y="892" as="sourcePoint" />
            <mxPoint x="1145" y="590" as="targetPoint" />
          </mxGeometry>
        </mxCell>
        <mxCell id="14n-f7DVuK32noArM2Mq-11" value="" style="endArrow=classic;html=1;rounded=0;exitX=0.059;exitY=0.742;exitDx=0;exitDy=0;entryX=1;entryY=0.75;entryDx=0;entryDy=0;exitPerimeter=0;" edge="1" parent="1" source="14n-f7DVuK32noArM2Mq-3" target="14n-f7DVuK32noArM2Mq-7">
          <mxGeometry width="50" height="50" relative="1" as="geometry">
            <mxPoint x="1117" y="409.5" as="sourcePoint" />
            <mxPoint x="875" y="672.5" as="targetPoint" />
          </mxGeometry>
        </mxCell>
        <mxCell id="14n-f7DVuK32noArM2Mq-12" value="Financial summary" style="text;html=1;whiteSpace=wrap;strokeColor=none;fillColor=none;align=center;verticalAlign=middle;rounded=0;rotation=0;" vertex="1" parent="1">
          <mxGeometry x="1120" y="520" width="90" height="30" as="geometry" />
        </mxCell>
        <mxCell id="14n-f7DVuK32noArM2Mq-13" value="Payment" style="text;html=1;whiteSpace=wrap;strokeColor=none;fillColor=none;align=center;verticalAlign=middle;rounded=0;rotation=0;" vertex="1" parent="1">
          <mxGeometry x="1115" y="570" width="100" height="30" as="geometry" />
        </mxCell>
        <mxCell id="14n-f7DVuK32noArM2Mq-14" value="Payment instructions" style="text;html=1;whiteSpace=wrap;strokeColor=none;fillColor=none;align=center;verticalAlign=middle;rounded=0;rotation=0;" vertex="1" parent="1">
          <mxGeometry x="1130" y="610" width="70" height="30" as="geometry" />
        </mxCell>
        <mxCell id="14n-f7DVuK32noArM2Mq-15" value="" style="endArrow=classic;html=1;rounded=0;exitX=0;exitY=0;exitDx=0;exitDy=0;entryX=0.5;entryY=1;entryDx=0;entryDy=0;" edge="1" parent="1" source="14n-f7DVuK32noArM2Mq-5" target="14n-f7DVuK32noArM2Mq-7">
          <mxGeometry width="50" height="50" relative="1" as="geometry">
            <mxPoint x="1215" y="968" as="sourcePoint" />
            <mxPoint x="996" y="680" as="targetPoint" />
          </mxGeometry>
        </mxCell>
        <mxCell id="14n-f7DVuK32noArM2Mq-16" value="Notifications" style="text;html=1;whiteSpace=wrap;strokeColor=none;fillColor=none;align=center;verticalAlign=middle;rounded=0;rotation=0;" vertex="1" parent="1">
          <mxGeometry x="991" y="797" width="110" height="30" as="geometry" />
        </mxCell>
        <mxCell id="14n-f7DVuK32noArM2Mq-17" value="" style="endArrow=classic;html=1;rounded=0;exitX=0.5;exitY=1;exitDx=0;exitDy=0;entryX=1;entryY=0;entryDx=0;entryDy=0;" edge="1" parent="1" source="14n-f7DVuK32noArM2Mq-8" target="14n-f7DVuK32noArM2Mq-5">
          <mxGeometry width="50" height="50" relative="1" as="geometry">
            <mxPoint x="1538" y="700" as="sourcePoint" />
            <mxPoint x="1320" y="988.5" as="targetPoint" />
          </mxGeometry>
        </mxCell>
        <mxCell id="14n-f7DVuK32noArM2Mq-18" value="Announcements" style="text;html=1;whiteSpace=wrap;strokeColor=none;fillColor=none;align=center;verticalAlign=middle;rounded=0;rotation=0;" vertex="1" parent="1">
          <mxGeometry x="1445" y="780" width="130" height="30" as="geometry" />
        </mxCell>
        <mxCell id="14n-f7DVuK32noArM2Mq-19" value="Authorization" style="text;html=1;whiteSpace=wrap;strokeColor=none;fillColor=none;align=center;verticalAlign=middle;rounded=0;rotation=0;" vertex="1" parent="1">
          <mxGeometry x="1130" y="470" width="70" height="30" as="geometry" />
        </mxCell>
        <mxCell id="14n-f7DVuK32noArM2Mq-26" value="Login Credentials" style="text;html=1;whiteSpace=wrap;strokeColor=none;fillColor=none;align=center;verticalAlign=middle;rounded=0;rotation=0;" vertex="1" parent="1">
          <mxGeometry x="1080" y="420" width="70" height="30" as="geometry" />
        </mxCell>
        <mxCell id="14n-f7DVuK32noArM2Mq-27" value="" style="endArrow=classic;html=1;rounded=0;entryX=0;entryY=0.5;entryDx=0;entryDy=0;" edge="1" parent="1" target="14n-f7DVuK32noArM2Mq-2">
          <mxGeometry width="50" height="50" relative="1" as="geometry">
            <mxPoint x="1040" y="530" as="sourcePoint" />
            <mxPoint x="1073" y="469.31" as="targetPoint" />
          </mxGeometry>
        </mxCell>
        <mxCell id="14n-f7DVuK32noArM2Mq-28" value="Login Credentials" style="text;html=1;whiteSpace=wrap;strokeColor=none;fillColor=none;align=center;verticalAlign=middle;rounded=0;rotation=0;" vertex="1" parent="1">
          <mxGeometry x="1400" y="420" width="70" height="30" as="geometry" />
        </mxCell>
        <mxCell id="14n-f7DVuK32noArM2Mq-29" value="" style="endArrow=classic;html=1;rounded=0;entryX=1;entryY=0.5;entryDx=0;entryDy=0;exitX=0.5;exitY=0;exitDx=0;exitDy=0;" edge="1" parent="1" source="14n-f7DVuK32noArM2Mq-8" target="14n-f7DVuK32noArM2Mq-2">
          <mxGeometry width="50" height="50" relative="1" as="geometry">
            <mxPoint x="1330" y="538.5" as="sourcePoint" />
            <mxPoint x="1493" y="411.5" as="targetPoint" />
          </mxGeometry>
        </mxCell>
        <mxCell id="14n-f7DVuK32noArM2Mq-34" value="" style="endArrow=classic;html=1;rounded=0;entryX=0;entryY=0.5;entryDx=0;entryDy=0;" edge="1" parent="1" target="14n-f7DVuK32noArM2Mq-1">
          <mxGeometry width="50" height="50" relative="1" as="geometry">
            <mxPoint x="970" y="532.5" as="sourcePoint" />
            <mxPoint x="1020" y="482.5" as="targetPoint" />
          </mxGeometry>
        </mxCell>
        <mxCell id="14n-f7DVuK32noArM2Mq-35" value="" style="endArrow=classic;html=1;rounded=0;entryX=1;entryY=0.5;entryDx=0;entryDy=0;exitX=1;exitY=0;exitDx=0;exitDy=0;" edge="1" parent="1" source="14n-f7DVuK32noArM2Mq-8" target="14n-f7DVuK32noArM2Mq-1">
          <mxGeometry width="50" height="50" relative="1" as="geometry">
            <mxPoint x="1445" y="579.5" as="sourcePoint" />
            <mxPoint x="1678" y="250" as="targetPoint" />
          </mxGeometry>
        </mxCell>
        <mxCell id="14n-f7DVuK32noArM2Mq-36" value="Updated Student Information" style="text;html=1;whiteSpace=wrap;strokeColor=none;fillColor=none;align=center;verticalAlign=middle;rounded=0;rotation=0;" vertex="1" parent="1">
          <mxGeometry x="1013" y="310" width="107" height="30" as="geometry" />
        </mxCell>
        <mxCell id="14n-f7DVuK32noArM2Mq-38" value="Student Registration Infor" style="text;html=1;whiteSpace=wrap;strokeColor=none;fillColor=none;align=center;verticalAlign=middle;rounded=0;rotation=0;" vertex="1" parent="1">
          <mxGeometry x="1445" y="310" width="107" height="30" as="geometry" />
        </mxCell>
        <mxCell id="14n-f7DVuK32noArM2Mq-40" value="" style="endArrow=classic;html=1;rounded=0;entryX=1;entryY=0;entryDx=0;entryDy=0;exitX=0;exitY=0.5;exitDx=0;exitDy=0;" edge="1" parent="1" source="14n-f7DVuK32noArM2Mq-8" target="14n-f7DVuK32noArM2Mq-4">
          <mxGeometry width="50" height="50" relative="1" as="geometry">
            <mxPoint x="1560" y="910" as="sourcePoint" />
            <mxPoint x="1610" y="860" as="targetPoint" />
          </mxGeometry>
        </mxCell>
        <mxCell id="14n-f7DVuK32noArM2Mq-41" value="" style="endArrow=classic;html=1;rounded=0;entryX=0;entryY=1;entryDx=0;entryDy=0;exitX=1;exitY=0.5;exitDx=0;exitDy=0;" edge="1" parent="1" source="14n-f7DVuK32noArM2Mq-4" target="14n-f7DVuK32noArM2Mq-8">
          <mxGeometry width="50" height="50" relative="1" as="geometry">
            <mxPoint x="1450" y="615" as="sourcePoint" />
            <mxPoint x="1337" y="761" as="targetPoint" />
          </mxGeometry>
        </mxCell>
        <mxCell id="14n-f7DVuK32noArM2Mq-42" value="&lt;div&gt;Database Management&amp;nbsp;&lt;/div&gt;&lt;div&gt;Request&lt;/div&gt;" style="text;html=1;whiteSpace=wrap;strokeColor=none;fillColor=none;align=center;verticalAlign=middle;rounded=0;rotation=-45;" vertex="1" parent="1">
          <mxGeometry x="1270" y="650" width="190" height="30" as="geometry" />
        </mxCell>
        <mxCell id="14n-f7DVuK32noArM2Mq-43" value="&lt;div&gt;Management Data &amp;amp; Reports&lt;/div&gt;&lt;div&gt;&lt;br&gt;&lt;/div&gt;" style="text;html=1;whiteSpace=wrap;strokeColor=none;fillColor=none;align=center;verticalAlign=middle;rounded=0;rotation=-60;" vertex="1" parent="1">
          <mxGeometry x="1330" y="710" width="130" height="30" as="geometry" />
        </mxCell>
      </root>
    </mxGraphModel>
  </diagram>
</mxfile>
